<svg width="475" height="100" viewBox="0 0 475 100" fill="none" xmlns="http://www.w3.org/2000/svg">
<rect width="475" height="100" fill="#1E1E1E"/>
<path d="M117.405 84.6C119.133 84.6 120.541 82.936 121.629 79.608C122.781 76.216 123.709 71.704 124.413 66.072C125.117 60.376 125.597 53.784 125.853 46.296C126.173 38.808 126.333 30.936 126.333 22.68H134.685C134.685 30.936 134.813 38.808 135.069 46.296C135.389 53.784 135.901 60.376 136.605 66.072C137.309 71.704 138.205 76.216 139.293 79.608C140.445 82.936 141.885 84.6 143.613 84.6C145.341 84.6 146.909 82.936 148.317 79.608C149.789 76.216 151.037 71.704 152.061 66.072C153.149 60.376 153.981 53.784 154.557 46.296C155.197 38.808 155.517 30.936 155.517 22.68H163.965C163.901 31.512 163.325 39.928 162.237 47.928C161.213 55.864 159.773 62.84 157.917 68.856C156.125 74.872 153.981 79.64 151.485 83.16C149.053 86.68 146.429 88.44 143.613 88.44C141.821 88.44 140.221 87.704 138.813 86.232C137.405 84.696 136.157 82.584 135.069 79.896C133.981 77.144 133.053 73.88 132.285 70.104C131.517 66.328 130.909 62.136 130.461 57.528C129.949 62.136 129.309 66.328 128.541 70.104C127.837 73.88 126.941 77.144 125.853 79.896C124.829 82.584 123.613 84.696 122.205 86.232C120.797 87.704 119.197 88.44 117.405 88.44C114.589 88.44 111.933 86.68 109.437 83.16C107.005 79.64 104.861 74.872 103.005 68.856C101.213 62.84 99.7735 55.864 98.6855 47.928C97.6615 39.928 97.1175 31.512 97.0535 22.68H105.501C105.501 30.936 105.789 38.808 106.365 46.296C107.005 53.784 107.837 60.376 108.861 66.072C109.949 71.704 111.197 76.216 112.605 79.608C114.077 82.936 115.677 84.6 117.405 84.6ZM204.251 87C204.251 84.312 204.219 81.72 204.155 79.224C204.091 76.664 203.995 74.136 203.867 71.64H180.731C180.603 74.136 180.507 76.664 180.443 79.224C180.379 81.72 180.347 84.312 180.347 87H171.899C171.963 78.168 172.507 69.784 173.531 61.848C174.619 53.848 176.059 46.84 177.851 40.824C179.707 34.808 181.851 30.04 184.283 26.52C186.779 23 189.435 21.24 192.251 21.24C195.131 21.24 197.787 23 200.219 26.52C202.651 30.04 204.763 34.808 206.555 40.824C208.411 46.84 209.851 53.848 210.875 61.848C211.963 69.784 212.539 78.168 212.603 87H204.251ZM192.251 25.08C190.907 25.08 189.627 26.168 188.411 28.344C187.195 30.456 186.107 33.4 185.147 37.176C184.187 40.952 183.355 45.432 182.651 50.616C181.947 55.736 181.403 61.304 181.019 67.32H203.579C203.195 61.304 202.619 55.736 201.851 50.616C201.147 45.432 200.283 40.952 199.259 37.176C198.299 33.4 197.211 30.456 195.995 28.344C194.843 26.168 193.595 25.08 192.251 25.08ZM224.022 15H231.51L230.454 87H225.078L224.022 15ZM252.181 41.304C252.181 43.48 252.885 45.304 254.293 46.776C255.765 48.248 257.557 49.624 259.669 50.904C261.845 52.184 264.181 53.432 266.677 54.648C269.173 55.864 271.477 57.272 273.589 58.872C275.765 60.472 277.557 62.36 278.965 64.536C280.437 66.648 281.173 69.272 281.173 72.408C281.173 77.72 279.605 81.72 276.469 84.408C273.397 87.096 268.597 88.44 262.069 88.44C259.445 88.44 256.917 88.216 254.485 87.768C252.053 87.384 249.909 86.52 248.053 85.176C246.197 83.832 244.661 81.912 243.445 79.416C242.293 76.92 241.621 73.624 241.429 69.528C242.837 69.4 244.277 69.272 245.749 69.144C247.221 69.016 248.597 68.888 249.877 68.76C250.005 72.344 250.421 75.192 251.125 77.304C251.829 79.416 252.725 81.016 253.813 82.104C254.901 83.192 256.149 83.896 257.557 84.216C259.029 84.472 260.533 84.6 262.069 84.6C266.037 84.6 268.885 83.512 270.613 81.336C272.341 79.096 273.205 76.312 273.205 72.984C273.205 70.552 272.501 68.504 271.093 66.84C269.685 65.112 267.925 63.576 265.813 62.232C263.701 60.824 261.429 59.512 258.997 58.296C256.565 57.08 254.293 55.736 252.181 54.264C250.069 52.792 248.309 51.096 246.901 49.176C245.493 47.256 244.789 44.92 244.789 42.168C244.789 39.8 245.237 37.4 246.133 34.968C247.029 32.472 248.245 30.232 249.781 28.248C251.317 26.2 253.077 24.536 255.061 23.256C257.045 21.912 259.125 21.24 261.301 21.24C262.837 21.24 264.341 21.688 265.813 22.584C267.349 23.416 268.789 24.6 270.133 26.136C271.477 27.672 272.693 29.528 273.781 31.704C274.933 33.816 275.893 36.152 276.661 38.712L268.501 41.112C268.437 38.552 268.181 36.28 267.733 34.296C267.285 32.312 266.709 30.648 266.005 29.304C265.365 27.896 264.629 26.84 263.797 26.136C262.965 25.432 262.133 25.08 261.301 25.08C260.021 25.08 258.837 25.592 257.749 26.616C256.661 27.64 255.701 28.952 254.869 30.552C254.037 32.152 253.365 33.912 252.853 35.832C252.405 37.752 252.181 39.576 252.181 41.304ZM321.585 87C321.585 84.312 321.553 81.72 321.489 79.224C321.425 76.664 321.329 74.136 321.201 71.64H298.065C297.937 74.136 297.841 76.664 297.777 79.224C297.713 81.72 297.681 84.312 297.681 87H289.233C289.297 78.168 289.841 69.784 290.865 61.848C291.953 53.848 293.393 46.84 295.185 40.824C297.041 34.808 299.185 30.04 301.617 26.52C304.113 23 306.769 21.24 309.585 21.24C312.465 21.24 315.121 23 317.553 26.52C319.985 30.04 322.097 34.808 323.889 40.824C325.745 46.84 327.185 53.848 328.209 61.848C329.297 69.784 329.873 78.168 329.937 87H321.585ZM309.585 25.08C308.241 25.08 306.961 26.168 305.745 28.344C304.529 30.456 303.441 33.4 302.481 37.176C301.521 40.952 300.689 45.432 299.985 50.616C299.281 55.736 298.737 61.304 298.353 67.32H320.913C320.529 61.304 319.953 55.736 319.185 50.616C318.481 45.432 317.617 40.952 316.593 37.176C315.633 33.4 314.545 30.456 313.329 28.344C312.177 26.168 310.929 25.08 309.585 25.08Z" fill="black"/>
<path d="M366.76 75.28C364.328 75.28 361.768 74.6827 359.08 73.488C356.434 72.2507 353.938 70.48 351.592 68.176C349.245 65.872 347.346 63.0987 345.896 59.856C344.445 56.6133 343.72 52.9653 343.72 48.912C343.72 45.7547 344.189 42.832 345.128 40.144C346.109 37.4133 347.41 34.9813 349.032 32.848C350.653 30.7147 352.466 28.9013 354.472 27.408C356.477 25.872 358.525 24.72 360.616 23.952C362.749 23.1413 364.797 22.736 366.76 22.736C368.68 22.736 370.685 23.1413 372.776 23.952C374.909 24.7627 376.957 25.936 378.92 27.472C380.925 28.9653 382.738 30.7787 384.36 32.912C385.981 35.0453 387.261 37.456 388.2 40.144C389.138 42.832 389.608 45.7547 389.608 48.912C389.608 52.9653 388.882 56.6133 387.432 59.856C385.981 63.0987 384.104 65.872 381.8 68.176C379.496 70.48 377.021 72.2507 374.376 73.488C371.73 74.6827 369.192 75.28 366.76 75.28ZM369.32 69.776C371.325 69.776 373.096 69.1147 374.632 67.792C376.168 66.4693 377.362 64.6347 378.216 62.288C379.112 59.8987 379.56 57.1467 379.56 54.032C379.56 49.7227 379.069 45.968 378.088 42.768C377.106 39.5253 375.826 36.8373 374.248 34.704C372.669 32.5707 370.984 30.9707 369.192 29.904C367.442 28.8373 365.778 28.304 364.2 28.304C362.237 28.304 360.466 28.9653 358.888 30.288C357.309 31.568 356.05 33.36 355.112 35.664C354.216 37.968 353.768 40.6773 353.768 43.792C353.768 48.3573 354.258 52.2827 355.24 55.568C356.264 58.8533 357.565 61.5413 359.144 63.632C360.765 65.7227 362.472 67.28 364.264 68.304C366.056 69.2853 367.741 69.776 369.32 69.776ZM426.819 74.832L400.195 36.624L394.499 74.832H393.475L389.379 24.08H399.875L421.763 50.576L428.547 23.44H429.763L427.331 74.832H426.819ZM434.54 74.64L432.172 24.08H443.82L443.692 28.944L466.732 23.44V33.808L443.628 31.568L443.244 47.76L463.468 43.024V53.2L443.18 50.32L442.796 65.744L468.012 68.432V69.072L434.54 74.64Z" fill="white"/>
<g opacity="0.22" filter="url(#filter0_ii_0_1)">
<path d="M474.156 82H340.156V16H474.156V82Z" fill="#C96EDB"/>
</g>
<path d="M56.7406 30.3366C57.9305 30.3366 58.8983 30.0368 58.8983 29.6682C58.8983 29.2998 57.9305 29 56.7406 29C55.5514 29 54.5835 29.2998 54.5835 29.6682C54.5835 30.0368 55.5514 30.3366 56.7406 30.3366ZM56.7406 29.3891C57.238 29.3891 57.6422 29.5143 57.6422 29.6682C57.6422 29.8223 57.238 29.9475 56.7406 29.9475C56.2438 29.9475 55.8396 29.8223 55.8396 29.6682C55.8396 29.5143 56.2438 29.3891 56.7406 29.3891ZM52.7313 29.6682C52.7313 29.2998 51.7635 29 50.5742 29C49.3844 29 48.4165 29.2998 48.4165 29.6682C48.4165 30.0368 49.3844 30.3366 50.5742 30.3366C51.7635 30.3366 52.7313 30.0368 52.7313 29.6682ZM49.6726 29.6682C49.6726 29.5143 50.0768 29.3891 50.5742 29.3891C51.071 29.3891 51.4752 29.5143 51.4752 29.6682C51.4752 29.8223 51.071 29.9475 50.5742 29.9475C50.0768 29.9475 49.6726 29.8223 49.6726 29.6682ZM58.5284 33.3301H48.7845C48.4374 33.3301 48.1565 33.4172 48.1565 33.5247V34.8054C48.1565 34.913 48.4374 35 48.7845 35H58.5284C58.8756 35 59.1565 34.913 59.1565 34.8054V33.5247C59.1565 33.4172 58.8756 33.3301 58.5284 33.3301ZM57.9004 34.6109H49.4126V33.7193H57.9004V34.6109Z" fill="white"/>
<path d="M71.8231 55.444V51.6607C71.8231 49.3184 70.1449 47.3775 67.9625 47.0328V45.9498C67.9625 45.3281 67.4717 44.8218 66.8681 44.8218H63.9579C62.6236 41.9424 60.0295 39.7232 56.85 38.8178V37.5149H61.2852C62.0468 37.5149 62.6659 36.8772 62.6659 36.0928V27.4222C62.6659 26.6377 62.0468 26 61.2852 26H46.0359C45.2743 26 44.6552 26.6377 44.6552 27.4222V36.0928C44.6552 36.8772 45.2743 37.5149 46.0359 37.5149H50.4711V38.8171C47.2903 39.722 44.6952 41.9415 43.3605 44.8218H40.4449C39.8413 44.8218 39.3504 45.3281 39.3504 45.9498V47.0328C37.1681 47.3775 35.4899 49.3184 35.4899 51.6607V55.444C34.1556 55.7681 33.1565 56.998 33.1565 58.4697C33.1565 60.1874 34.5136 61.5852 36.1812 61.5852C37.8489 61.5852 39.206 60.1874 39.206 58.4697C39.206 56.998 38.2069 55.7681 36.8726 55.444V51.6607C36.8726 50.1062 37.9354 48.807 39.3504 48.4806V49.42C39.3504 50.0417 39.8413 50.5473 40.4449 50.5473H42.3806V58.4996C42.3806 58.8932 42.6898 59.2117 43.072 59.2117H45.9218V63.0951C45.7557 63.4416 45.6538 63.8264 45.6538 64.2383C45.6538 64.6501 45.7557 65.0348 45.9218 65.3814V68.7732H44.7335C44.3514 68.7732 44.0422 69.0917 44.0422 69.4853V72.2879C44.0422 72.6815 44.3514 73 44.7335 73H51.6317C52.0138 73 52.323 72.6815 52.323 72.2879V69.4853C52.323 69.0917 52.0138 68.7732 51.6317 68.7732H50.4434V65.3776C50.6084 65.0319 50.7094 64.6486 50.7094 64.2383C50.7094 63.828 50.6084 63.4446 50.4434 63.0989V59.2117H56.8757V63.0951C56.7095 63.4416 56.6076 63.8264 56.6076 64.2383C56.6076 64.6501 56.7095 65.0348 56.8757 65.3814V68.7732H55.6874C55.3052 68.7732 54.996 69.0917 54.996 69.4853V72.2879C54.996 72.6815 55.3052 73 55.6874 73H62.5855C62.9677 73 63.2769 72.6815 63.2769 72.2879V69.4853C63.2769 69.0917 62.9677 68.7732 62.5855 68.7732H61.3972V65.3776C61.5622 65.0319 61.6633 64.6486 61.6633 64.2383C61.6633 63.828 61.5622 63.4446 61.3972 63.0989V59.2117H64.2464C64.6286 59.2117 64.9378 58.8932 64.9378 58.4996V50.5473H66.8681C67.4717 50.5473 67.9625 50.0417 67.9625 49.42V48.4806C69.3776 48.807 70.4404 50.1062 70.4404 51.6607V55.444C69.1061 55.7681 68.107 56.998 68.107 58.4697C68.107 60.1874 69.4641 61.5852 71.1318 61.5852C72.7994 61.5852 74.1565 60.1874 74.1565 58.4697C74.1565 56.998 73.1574 55.7681 71.8231 55.444ZM37.8232 58.4697C37.8232 59.4022 37.0866 60.161 36.1812 60.161C35.2758 60.161 34.5392 59.4022 34.5392 58.4697C34.5392 57.5371 35.2758 56.7784 36.1812 56.7784C37.0866 56.7784 37.8232 57.5371 37.8232 58.4697ZM47.0365 64.2383C47.0365 63.588 47.5503 63.0588 48.1816 63.0588C48.8129 63.0588 49.3267 63.588 49.3267 64.2383C49.3267 64.8885 48.8129 65.4177 48.1816 65.4177C47.5503 65.4177 47.0365 64.8885 47.0365 64.2383ZM49.0607 61.8063C48.7858 61.7004 48.4918 61.6346 48.1816 61.6346C47.8721 61.6346 47.5789 61.7003 47.3046 61.8056V59.2145H49.0607V61.8063ZM50.9403 71.5758H45.4249V70.1974H46.6132H49.752H50.9403V71.5758ZM47.3046 68.7732V66.6709C47.5789 66.7762 47.8721 66.842 48.1816 66.842C48.4918 66.842 48.7858 66.7761 49.0607 66.6702V68.7732H47.3046ZM57.9904 64.2383C57.9904 63.588 58.5042 63.0588 59.1354 63.0588C59.7667 63.0588 60.2805 63.588 60.2805 64.2383C60.2805 64.8885 59.7667 65.4177 59.1354 65.4177C58.5042 65.4177 57.9904 64.8885 57.9904 64.2383ZM60.0145 61.8063C59.7396 61.7004 59.4457 61.6346 59.1354 61.6346C58.8259 61.6346 58.5327 61.7003 58.2584 61.8056V59.2145H60.0145V61.8063ZM61.8942 71.5758H56.3788V70.1974H57.567H60.7059H61.8942V71.5758ZM58.2584 68.7732V66.6709C58.5327 66.7762 58.8259 66.842 59.1354 66.842C59.4457 66.842 59.7396 66.7761 60.0145 66.6702V68.7732H58.2584ZM46.0379 27.4242L61.2831 27.4222L61.2852 36.0907L56.162 36.0914C56.1608 36.0914 56.1598 36.0907 56.1587 36.0907H51.1624C51.1601 36.0907 51.1581 36.092 51.1558 36.0921L46.0379 36.0928V27.4242ZM51.8538 37.5149H55.4673V38.5212C54.8771 38.429 54.276 38.3682 53.6592 38.3682C53.0433 38.3682 52.4431 38.4289 51.8538 38.5208V37.5149ZM40.7332 46.2461H42.8235C42.5509 47.1625 42.3963 48.1257 42.3862 49.1231H40.7332V46.2461ZM63.5551 57.7874H43.7633V49.2295C43.7633 44.8596 46.8981 41.1849 51.1327 40.1159C51.1431 40.1164 51.1519 40.1221 51.1624 40.1221C51.281 40.1221 51.3872 40.0835 51.4846 40.0294C52.1854 39.8788 52.9114 39.7925 53.6592 39.7925C54.4035 39.7925 55.1263 39.8778 55.8241 40.0271C55.9246 40.0858 56.0347 40.1284 56.1587 40.1284C56.1736 40.1284 56.186 40.1206 56.2007 40.1196C60.4276 41.1936 63.5551 44.8647 63.5551 49.2295V57.7874ZM66.5798 49.1231H64.9322C64.9221 48.1257 64.7675 47.1625 64.4949 46.2461H66.5798V49.1231ZM71.1318 60.161C70.2264 60.161 69.4898 59.4022 69.4898 58.4697C69.4898 57.5371 70.2264 56.7784 71.1318 56.7784C72.0372 56.7784 72.7738 57.5371 72.7738 58.4697C72.7738 59.4022 72.0372 60.161 71.1318 60.161Z" fill="white"/>
<path d="M84.9652 57.7618C83.3356 54.5958 83.6653 50.7506 85.8087 47.9216L86.786 46.6317C90.4045 41.8559 88.5717 34.8751 83.0984 32.5857L81.6201 31.9673C78.3779 30.6111 76.2087 27.4493 76.069 23.8759L76.0053 22.2467C75.7693 16.2144 69.9689 12.0691 64.3342 13.906L62.8123 14.4021C59.4745 15.4903 55.8214 14.4913 53.4639 11.8456" stroke="#6750A4" stroke-width="8" stroke-linecap="round"/>
<path fill-rule="evenodd" clip-rule="evenodd" d="M37.8681 7.88483C39.7709 11.6155 38.3503 16.2141 34.695 18.1562L31.7968 19.696L29.3159 21.3091L26.9821 23.1368L24.8134 25.165L22.826 27.3785L21.0353 29.7604L19.4548 32.2925L18.0965 34.9555L16.9708 37.7292L16.0862 40.5925L15.4496 43.5236L15.0656 46.5002L14.9373 49.4996L15.0656 52.499L15.4496 55.4756L16.0862 58.4067L16.9708 61.27L18.0965 64.0437L19.4548 66.7067L21.0353 69.2388L22.826 71.6207L24.8134 73.8342L26.9822 75.8625L29.3159 77.6901L31.7969 79.3033L34.406 80.6895L37.1238 81.8385L39.9292 82.7413L42.8011 83.3911L45.7175 83.7829L48.6563 83.9139L51.5951 83.7829L54.5116 83.3911L57.3835 82.7413L60.1889 81.8385L62.9066 80.6895L65.5158 79.3033L67.9968 77.6901L70.3305 75.8625L72.7395 73.6096C75.7777 70.7681 80.4976 70.9784 83.2816 74.0793C86.0657 77.1802 85.8596 81.9974 82.8214 84.8388L79.932 87.541L76.5645 90.1783L72.9845 92.5061L69.2194 94.5065L65.2978 96.1643L61.2495 97.4671L57.1054 98.4047L52.897 98.9702L48.6563 99.1592L44.4157 98.9702L40.2073 98.4047L36.0632 97.4671L32.0149 96.1643L28.0933 94.5065L24.3282 92.5061L20.7482 90.1783L17.3806 87.541L14.2511 84.6142L11.3834 81.4202L8.7994 77.9832L6.51871 74.3294L4.55872 70.4867L2.93434 66.4842L1.65792 62.3525L0.739201 58.1229L0.185152 53.8277L0 49.4996L0.185152 45.1715L0.739201 40.8763L1.65792 36.6468L2.93434 32.515L4.55872 28.5126L6.51871 24.6698L8.7994 21.0161L11.3834 17.5791L14.2511 14.385L17.3806 11.4582L20.7482 8.82088L24.3282 6.49317L27.8043 4.64629C31.4596 2.70424 35.9653 4.15419 37.8681 7.88483Z" fill="#6750A4"/>
<defs>
<filter id="filter0_ii_0_1" x="340.156" y="16" width="138" height="70" filterUnits="userSpaceOnUse" color-interpolation-filters="sRGB">
<feFlood flood-opacity="0" result="BackgroundImageFix"/>
<feBlend mode="normal" in="SourceGraphic" in2="BackgroundImageFix" result="shape"/>
<feColorMatrix in="SourceAlpha" type="matrix" values="0 0 0 0 0 0 0 0 0 0 0 0 0 0 0 0 0 0 127 0" result="hardAlpha"/>
<feOffset dx="5" dy="5"/>
<feGaussianBlur stdDeviation="2"/>
<feComposite in2="hardAlpha" operator="arithmetic" k2="-1" k3="1"/>
<feColorMatrix type="matrix" values="0 0 0 0 0 0 0 0 0 0 0 0 0 0 0 0 0 0 0.25 0"/>
<feBlend mode="normal" in2="shape" result="effect1_innerShadow_0_1"/>
<feColorMatrix in="SourceAlpha" type="matrix" values="0 0 0 0 0 0 0 0 0 0 0 0 0 0 0 0 0 0 127 0" result="hardAlpha"/>
<feOffset dy="4"/>
<feGaussianBlur stdDeviation="2"/>
<feComposite in2="hardAlpha" operator="arithmetic" k2="-1" k3="1"/>
<feColorMatrix type="matrix" values="0 0 0 0 0 0 0 0 0 0 0 0 0 0 0 0 0 0 0.25 0"/>
<feBlend mode="normal" in2="effect1_innerShadow_0_1" result="effect2_innerShadow_0_1"/>
</filter>
</defs>
</svg>
